Coordinates
version=1
nRows=7
nColumns=40
inDegrees=yes

Units are S.I. units (second, meters, Newtons, ...)
Angles are in degrees.

endheader
time	pelvis_tilt	pelvis_list	pelvis_rotation	pelvis_tx	pelvis_ty	pelvis_tz	hip_flexion_r	hip_adduction_r	hip_rotation_r	knee_angle_r	knee_angle_r_beta	ankle_angle_r	subtalar_angle_r	mtp_angle_r	hip_flexion_l	hip_adduction_l	hip_rotation_l	knee_angle_l	knee_angle_l_beta	ankle_angle_l	subtalar_angle_l	mtp_angle_l	lumbar_extension	lumbar_bending	lumbar_rotation	arm_flex_r	arm_add_r	arm_rot_r	elbow_flex_r	pro_sup_r	wrist_flex_r	wrist_dev_r	arm_flex_l	arm_add_l	arm_rot_l	elbow_flex_l	pro_sup_l	wrist_flex_l	wrist_dev_l
      0.73000000	      0.71333628	     -5.13223057	     -2.72254829	     -0.97241711	      0.89500586	     -1.45231135	     18.61294249	      5.85322853	    -17.44058760	    -19.07906408	     -0.33299249	     -3.48224025	      1.60129259	     -0.83660459	     -9.26966361	      7.62318509	     10.75159598	    -33.71929274	     -0.58851268	     -5.62297393	     -9.39553009	     -4.93375249	     -6.13841527	      7.97402529	     -1.64938435	      3.12259713	     -8.05990383	     17.73258424	     10.37046584	     89.95437384	      0.00000000	      0.00000000	     12.92820328	      9.70325209	      1.97483627	     36.74538832	     89.95437384	      0.00000000	      0.00000000
      0.74000000	      0.56762009	     -5.42938006	     -2.57007955	     -0.96146769	      0.89667066	     -1.45071158	     17.80820723	      6.25870668	    -17.43746616	    -18.82687074	     -0.32859088	     -2.91694770	      1.88023677	     -0.80492065	     -7.81363557	      8.53416000	     10.90094024	    -36.43336355	     -0.63588215	     -9.21903500	     -8.77794999	     -5.04465855	     -5.79403426	      8.25359315	     -1.47501251	      2.91737952	     -8.24706116	     19.08385031	     10.63922070	     89.95437384	      0.00000000	      0.00000000	     12.39113900	      9.25620813	      2.04533804	     36.05475836	     89.95437384	      0.00000000	      0.00000000
      0.75000000	      0.45370840	     -5.54185383	     -2.43632302	     -0.95070785	      0.89818286	     -1.44927832	     17.02122756	      6.47319564	    -17.34408955	    -18.63605043	     -0.32526044	     -2.23360043	      2.16849252	     -0.85765552	     -6.30917147	      8.99144811	     10.42683791	    -38.98069300	     -0.68034144	    -12.10302103	     -6.53730301	     -4.71469439	     -5.50237929	      8.33541106	     -1.30089430	      2.82436043	     -8.29878694	     19.44808716	     10.76597965	     89.95437384	      0.00000000	      0.00000000	     11.85542778	      8.90397711	      1.98136584	     35.35606560	     89.95437384	      0.00000000	      0.00000000
      0.76000000	      0.28997298	     -5.61551848	     -2.23971013	     -0.94039043	      0.89924793	     -1.44800885	     16.36645817	      6.62011351	    -17.38541103	    -18.51461662	     -0.32314102	     -1.61711932	      2.46762534	     -0.91149525	     -4.58300945	      9.42410943	      9.87818880	    -41.69439791	     -0.72770452	    -13.53688184	     -4.76089355	     -4.83777714	     -5.20252568	      8.37210138	     -1.11449107	      2.70856660	     -8.45162880	     20.13780597	     11.10865335	     89.95437384	      0.00000000	      0.00000000	     11.41715705	      8.57209947	      1.77657365	     34.60840025	     89.95437384	      0.00000000	      0.00000000
      0.77000000	      0.32731288	     -5.76671482	     -2.04109210	     -0.93007983	      0.90021666	     -1.44675659	     15.45519791	      6.86750841	    -17.45788217	    -18.35064771	     -0.32027922	     -0.72666832	      2.82213779	     -1.04516049	     -3.07145314	      9.89315733	      9.44655956	    -44.27956160	     -0.77282414	    -13.69379577	     -3.05052036	     -4.86499208	     -5.17049352	      8.49337700	     -0.87620301	      2.63550293	     -8.61361243	     20.36749769	     11.51737228	     89.95437384	      0.00000000	      0.00000000	     11.09338645	      8.22821600	      1.55199969	     33.68988377	     89.95437384	      0.00000000	      0.00000000
      0.78000000	     -0.01614374	     -5.84643655	     -1.72358477	     -0.92055074	      0.90022591	     -1.44588199	     15.14557549	      6.89987061	    -18.04555196	    -18.40038151	     -0.32114724	     -0.24157878	      3.35576874	     -1.19409715	     -0.85382622	     10.17257974	      8.65368594	    -47.18618455	     -0.82355428	    -12.27407984	     -0.03019177	     -5.29953022	     -4.77295330	      8.55530588	     -0.78140336	      2.51480353	     -8.95028343	     21.35524834	     12.26608499	     89.95437384	      0.00000000	      0.00000000	     10.72341820	      7.97211966	      1.11372096	     32.95451457	     89.95437384	      0.00000000	      0.00000000
      0.79000000	      0.25358651	     -6.07204693	     -1.49418580	     -0.91054918	      0.90092811	     -1.44470439	     13.98176586	      7.19961901	    -18.35336172	    -18.19842688	     -0.31762247	      0.66323112	      3.82390799	     -1.38822492	      0.49689019	     10.76012841	      8.47395558	    -49.58443751	     -0.86541169	    -11.39278312	      1.39165162	     -5.49627954	     -5.04012033	      8.72210687	     -0.51186856	      2.56456707	     -9.17807383	     21.67281999	     12.72916908	     89.95437384	      0.00000000	      0.00000000	     10.48557896	      7.63933547	      0.83214387	     31.99321643	     89.95437384	      0.00000000	      0.00000000
